<?xml version="1.0" encoding="UTF-8"?>
<svg width="144" height="195" xmlns="http://www.w3.org/2000/svg" viewBox="0 0 123.25 99.28">
  <path d="M64.24,19.02c0,4.45,0,8.89,0,13.34,0,3.2-2.32,5.53-5.52,5.52-1.07,0-2.14,.11-3.19-.14-2.5-.59-4.12-2.7-4.13-5.48-.02-8.85-.02-17.71,0-26.56,0-2.97,1.78-5.18,4.59-5.52,1.74-.21,3.55-.4,5.23,.45,1.96,1,3,2.62,3.01,4.82,.03,4.52,0,9.05,0,13.57Z" fill="#fff"/>
  <path d="M18.25,21.39c0-4.52,0-9.04,0-13.57,0-2.93,2.38-5.32,5.31-5.3,1.2,0,2.4-.13,3.59,.19,2.24,.6,3.91,2.73,3.91,5.06,0,9.08,0,18.17,0,27.25,0,2.79-2.29,5.18-5.07,5.26-1.16,.03-2.33,.14-3.48-.09-2.54-.53-4.26-2.65-4.26-5.23,0-4.52,0-9.04,0-13.57Z" fill="#fff"/>
  <path d="M97.39,21.42c0,4.52,0,9.04,0,13.57,0,2.91-2.26,5.24-5.18,5.3-1.08,.02-2.18,.13-3.25-.09-2.61-.53-4.37-2.6-4.38-5.26-.02-9.03-.03-18.05,0-27.08,0-3.05,2.41-5.36,5.47-5.35,1.01,0,2.02-.09,3.03,.09,2.45,.44,4.31,2.64,4.31,5.13,0,4.56,0,9.12,0,13.68Z" fill="#fff"/>
  <path d="M47.91,33.32c0,4.5,0,9.01,0,13.51,0,2.95-2.33,5.33-5.27,5.35-1.03,0-2.06,.1-3.08-.08-2.51-.43-4.32-2.47-4.46-5.01-.01-.19-.01-.38-.01-.57,0-8.82,0-17.63,0-26.45,0-3.41,2.26-5.68,5.66-5.66,.93,0,1.87-.09,2.8,.09,2.56,.48,4.37,2.65,4.37,5.26,0,4.52,0,9.04,0,13.57Z" fill="#fff"/>
  <path d="M81.4,31.38c0,3.97-.17,7.95,.04,11.91,.26,5-2.41,7.47-7.13,7.06-.59-.05-1.18-.05-1.75-.2-2.33-.62-3.96-2.66-3.97-5.06-.02-9.1-.02-18.2,0-27.31,0-2.93,2.38-5.22,5.33-5.22,1.03,0,2.07-.12,3.09,.07,2.64,.5,4.39,2.64,4.39,5.36,0,4.47,0,8.93,0,13.4Z" fill="#fff"/>
  <path d="M13.45,78.75c1.69-3.68,3.93-6.92,5.84-10.34,.98-1.74,2.36-2.62,4.38-2.48,.82,.05,1.64,.02,2.46,0,.29,0,.4,.07,.39,.38-.02,1.11-.02,2.21,0,3.32,0,.31-.12,.41-.4,.37-1.76-.28-2.73,.63-3.58,2.08-1.88,3.22-3.9,6.37-5.88,9.53-.22,.36-.21,.61,0,.96,3.3,5.35,6.58,10.71,9.86,16.07,.11,.17,.21,.35,.37,.62h-2.39c-.84,0-1.68-.02-2.52,0-.35,.01-.53-.11-.71-.41-2.6-4.46-5.35-8.83-7.83-13.35-.02-.03-.05-.06-.13-.15-.32,.62-.62,1.23-.94,1.82-2.21,4-4.64,7.88-6.94,11.82-.13,.22-.28,.27-.5,.27-1.64,0-3.28,0-4.93,0-.08-.21,.09-.32,.17-.45,3.3-5.42,6.6-10.83,9.92-16.23,.22-.35,.24-.6,.02-.96-2.1-3.38-4.21-6.76-6.25-10.17-.62-1.05-1.42-1.54-2.61-1.44-.13,.01-.27-.01-.4,0-.44,.06-.59-.1-.58-.56,.04-1.03,.01-2.06,.01-3.09,0-.2-.06-.42,.29-.42,1.2,.02,2.41-.02,3.6,.04,1.22,.06,2.19,.64,2.83,1.68,.98,1.59,1.92,3.2,2.88,4.8,1.16,1.93,2.26,3.88,3.3,5.87,.06,.11,.13,.22,.25,.42Z" fill="#fff"/>
  <path d="M61.61,93.85c.29-1.09,.49-2.04,.78-2.96,1.16-3.66,2.54-7.25,3.82-10.88,1.33-3.77,2.68-7.53,4.02-11.29,.08-.21,.16-.43,.24-.64,.55-1.5,1.64-2.17,3.21-2.15,.9,.01,1.79,.02,2.69,0,.34,0,.47,.06,.46,.43-.03,1.05-.02,2.1,0,3.15,0,.36-.08,.49-.47,.5-1.26,.02-1.42,.16-1.86,1.35-3.38,9.11-6.76,18.23-10.14,27.34-.15,.4-.31,.59-.79,.57-1.28-.05-2.56-.04-3.83,0-.46,.01-.68-.11-.85-.58-3.18-8.62-6.39-17.23-9.59-25.84-.2-.53-.39-1.07-.59-1.61-.38-1.02-.64-1.24-1.72-1.23-.51,0-.59-.17-.57-.61,.03-1.03,0-2.06,.01-3.09,0-.18-.06-.38,.26-.38,1.16,.02,2.33-.02,3.49,.05,1.27,.07,2.11,.79,2.55,1.97,.44,1.19,.87,2.39,1.3,3.6,2.14,6,4.27,12.01,6.4,18.01,.48,1.35,.79,2.74,1.19,4.29Z" fill="#fff"/>
  <path d="M82.7,82.6c0-3.99-.01-7.98,.01-11.96,0-.55-.17-.67-.67-.64-.74,.04-1.49,0-2.23,.01-.29,0-.41-.08-.4-.39,.02-1.11,.01-2.21,0-3.32,0-.26,.06-.37,.35-.37,3.45,0,6.91,0,10.36,0,.25,0,.33,.08,.33,.32-.01,1.13-.01,2.25,0,3.38,0,.33-.15,.37-.42,.37-.78-.01-1.57,.02-2.35-.01-.39-.01-.52,.09-.51,.5,.02,1.74,.01,3.47,.01,5.21,0,6.3,0,12.59-.01,18.89,0,.52,.13,.65,.63,.62,.74-.04,1.49,0,2.23-.02,.33,0,.42,.11,.42,.43-.02,1.09-.02,2.18,0,3.26,0,.3-.09,.39-.39,.38-3.42,0-6.83-.01-10.25,0-.34,0-.41-.11-.41-.42,.02-1.07,.02-2.14,0-3.21,0-.36,.12-.46,.46-.45,.72,.02,1.45-.02,2.17,.02,.5,.03,.67-.09,.67-.64-.03-3.99-.01-7.98-.01-11.96Z" fill="#fff"/>
  <path d="M37.15,87.81c-2.14,0-4.27,0-6.41,0-.37,0-.48-.09-.47-.47,.03-1.05,.02-2.1,0-3.15,0-.32,.04-.47,.42-.46,4.31,.01,8.62,.01,12.93,0,.35,0,.46,.1,.45,.45-.02,1.03-.03,2.06,0,3.09,.01,.42-.09,.55-.53,.54-2.14-.03-4.27-.01-6.41-.01Z" fill="#fff"/>
  <path d="M123.25,95.7c.01-.4-.11-.51-.51-.51-1.23,0-1.44-.18-1.87-1.34-3.37-9.12-6.74-18.23-10.1-27.36-.16-.42-.34-.58-.81-.57-1.3,.04-2.6,.03-3.89,0-.42-.01-.57,.14-.71,.52-2.04,5.55-4.1,11.1-6.15,16.65-1.37,3.69-2.74,7.38-4.1,11.08-.18,.49-.44,.86-1,.98-.39,.08-.95-.17-1.15,.2-.18,.33-.04,.82-.04,1.24,0,.21,0,.42,0,.63,0,.55,.02,1.11,0,1.66-.01,.3,.08,.39,.38,.38,.82-.02,1.64,0,2.46,0,2.04,0,2.86-.54,3.58-2.45,.84-2.22,1.64-4.46,2.44-6.7,.13-.37,.3-.48,.69-.48,3.66,.02,7.33,.03,10.99,0,.57,0,.81,.14,1,.69,.82,2.35,1.69,4.69,2.57,7.03,.41,1.09,1.19,1.74,2.38,1.86,1.18,.12,2.36,.02,3.54,.06,.34,.01,.29-.21,.29-.42,0-1.05-.02-2.1,0-3.15Zm-20.12-10.07c1.59-4.92,3.72-9.59,4.89-14.6,1.26,5,3.34,9.7,4.94,14.6h-9.84Z" fill="#fff"/>
</svg>
