<?xml version="1.0" encoding="UTF-8"?>
<svg width="132" height="35" xmlns="http://www.w3.org/2000/svg" viewBox="0 0 120.55 29.09">
  <path d="M25.62,10.59c0,2.48,0,4.95,0,7.43,0,1.78-1.29,3.08-3.07,3.08-.59,0-1.19,.06-1.78-.08-1.39-.33-2.3-1.5-2.3-3.05-.01-4.93-.01-9.87,0-14.8,0-1.66,.99-2.88,2.56-3.07,.97-.12,1.98-.22,2.91,.25,1.09,.56,1.67,1.46,1.68,2.69,.02,2.52,0,5.04,0,7.56Z" fill="#f9bb14"/>
  <path d="M0,11.92C0,9.4,0,6.88,0,4.36,0,2.73,1.32,1.4,2.96,1.4c.67,0,1.34-.07,2,.11,1.25,.34,2.18,1.52,2.18,2.82,0,5.06,0,10.12,0,15.18,0,1.56-1.27,2.89-2.83,2.93-.65,.02-1.3,.08-1.94-.05C.96,22.1,0,20.91,0,19.48c0-2.52,0-5.04,0-7.56Z" fill="#4eb5e6"/>
  <path d="M44.09,11.93c0,2.52,0,5.04,0,7.56,0,1.62-1.26,2.92-2.89,2.95-.6,.01-1.21,.07-1.81-.05-1.46-.3-2.44-1.45-2.44-2.93-.01-5.03-.01-10.06,0-15.09,0-1.7,1.34-2.99,3.05-2.98,.56,0,1.13-.05,1.69,.05,1.36,.25,2.4,1.47,2.4,2.86,0,2.54,0,5.08,0,7.62Z" fill="#4eb5e6"/>
  <path d="M16.52,18.57c0,2.51,0,5.02,0,7.53,0,1.65-1.3,2.97-2.94,2.98-.57,0-1.15,.05-1.72-.04-1.4-.24-2.41-1.38-2.48-2.79,0-.11,0-.21,0-.32,0-4.91,0-9.82,0-14.74,0-1.9,1.26-3.16,3.15-3.16,.52,0,1.04-.05,1.56,.05,1.43,.27,2.43,1.47,2.43,2.93,0,2.52,0,5.04,0,7.56Z" fill="#2ea852"/>
  <path d="M35.18,17.49c0,2.21-.09,4.43,.02,6.63,.15,2.79-1.34,4.16-3.97,3.94-.33-.03-.66-.03-.98-.11-1.3-.35-2.21-1.48-2.21-2.82,0-5.07-.01-10.14,0-15.21,0-1.64,1.33-2.91,2.97-2.91,.57,0,1.15-.07,1.72,.04,1.47,.28,2.44,1.47,2.45,2.98,0,2.49,0,4.98,0,7.46Z" fill="#eb1f27"/>
  <path d="M59.38,13.01c.94-2.05,2.19-3.85,3.26-5.76,.54-.97,1.31-1.46,2.44-1.38,.46,.03,.91,.01,1.37,0,.16,0,.22,.04,.22,.21-.01,.62,0,1.23,0,1.85,0,.17-.06,.23-.22,.21-.98-.16-1.52,.35-1.99,1.16-1.05,1.8-2.17,3.55-3.28,5.31-.13,.2-.12,.34,0,.54,1.84,2.98,3.67,5.97,5.49,8.95,.06,.1,.12,.2,.2,.34h-1.33c-.47,0-.94-.01-1.4,0-.2,0-.3-.06-.4-.23-1.45-2.48-2.98-4.92-4.36-7.44,0-.02-.03-.03-.07-.08-.18,.35-.34,.69-.52,1.01-1.23,2.23-2.58,4.39-3.86,6.59-.07,.12-.15,.15-.28,.15-.91,0-1.83,0-2.75,0-.04-.12,.05-.18,.09-.25,1.84-3.02,3.68-6.03,5.53-9.05,.12-.2,.13-.33,0-.54-1.17-1.88-2.35-3.76-3.48-5.67-.35-.58-.79-.86-1.45-.8-.07,0-.15,0-.22,0-.25,.04-.33-.05-.32-.31,.02-.57,0-1.15,0-1.72,0-.11-.03-.24,.16-.23,.67,.01,1.34-.01,2.01,.02,.68,.03,1.22,.36,1.58,.94,.55,.88,1.07,1.78,1.6,2.67,.64,1.07,1.26,2.16,1.84,3.27,.03,.06,.07,.12,.14,.24Z" fill="#333"/>
  <path d="M86.21,21.42c.16-.61,.27-1.14,.44-1.65,.65-2.04,1.41-4.04,2.13-6.06,.74-2.1,1.49-4.19,2.24-6.29,.04-.12,.09-.24,.13-.36,.3-.84,.91-1.21,1.79-1.2,.5,0,1,0,1.5,0,.19,0,.26,.04,.25,.24-.01,.58-.01,1.17,0,1.75,0,.2-.04,.27-.26,.28-.7,.01-.79,.09-1.04,.75-1.88,5.08-3.77,10.15-5.65,15.23-.08,.22-.17,.33-.44,.32-.71-.03-1.42-.02-2.14,0-.26,0-.38-.06-.48-.32-1.77-4.8-3.56-9.6-5.34-14.4-.11-.3-.22-.6-.33-.9-.21-.57-.36-.69-.96-.68-.28,0-.33-.09-.32-.34,.02-.57,0-1.15,0-1.72,0-.1-.03-.21,.15-.21,.65,.01,1.3,0,1.94,.03,.71,.04,1.18,.44,1.42,1.1,.25,.67,.49,1.33,.72,2,1.19,3.35,2.38,6.69,3.57,10.04,.27,.75,.44,1.53,.66,2.39Z" fill="#333"/>
  <path d="M97.96,15.15c0-2.22,0-4.44,0-6.67,0-.31-.09-.37-.37-.36-.41,.02-.83,0-1.24,0-.16,0-.23-.04-.22-.22,0-.62,0-1.23,0-1.85,0-.15,.04-.2,.19-.2,1.92,0,3.85,0,5.77,0,.14,0,.18,.04,.18,.18,0,.63,0,1.25,0,1.88,0,.18-.08,.21-.23,.21-.44,0-.87,0-1.31,0-.22,0-.29,.05-.29,.28,.01,.97,0,1.93,0,2.9,0,3.51,0,7.02,0,10.53,0,.29,.07,.36,.35,.34,.41-.02,.83,0,1.24,0,.18,0,.24,.06,.23,.24,0,.61,0,1.21,0,1.82,0,.17-.05,.21-.22,.21-1.9,0-3.81,0-5.71,0-.19,0-.23-.06-.23-.24,0-.6,.01-1.19,0-1.79,0-.2,.07-.25,.26-.25,.4,.01,.81-.01,1.21,0,.28,.02,.38-.05,.37-.36-.01-2.22,0-4.44,0-6.67Z" fill="#333"/>
  <path d="M72.58,18.06c-1.19,0-2.38,0-3.57,0-.21,0-.27-.05-.26-.26,.01-.58,.01-1.17,0-1.75,0-.18,.02-.26,.24-.26,2.4,0,4.8,0,7.2,0,.19,0,.26,.05,.25,.25-.01,.57-.02,1.15,0,1.72,0,.23-.05,.3-.29,.3-1.19-.01-2.38,0-3.57,0Z" fill="#333"/>
  <path d="M120.55,22.45c0-.22-.06-.28-.29-.29-.68,0-.8-.1-1.04-.75-1.88-5.08-3.76-10.16-5.63-15.24-.09-.23-.19-.32-.45-.32-.72,.02-1.45,.02-2.17,0-.23,0-.32,.08-.4,.29-1.14,3.09-2.28,6.18-3.43,9.28-.76,2.06-1.53,4.11-2.28,6.17-.1,.28-.24,.48-.56,.55-.22,.05-.53-.1-.64,.11-.1,.18-.02,.46-.02,.69,0,.12,0,.23,0,.35,0,.31,0,.62,0,.92,0,.17,.04,.22,.21,.21,.46-.01,.91,0,1.37,0,1.13,0,1.59-.3,1.99-1.37,.47-1.24,.92-2.49,1.36-3.73,.07-.2,.17-.27,.38-.27,2.04,0,4.08,.01,6.12,0,.31,0,.45,.08,.56,.38,.46,1.31,.94,2.61,1.43,3.92,.23,.61,.67,.97,1.33,1.04,.66,.07,1.32,.01,1.97,.03,.19,0,.16-.12,.16-.23,0-.58-.01-1.17,0-1.75Zm-11.21-5.61c.89-2.74,2.07-5.34,2.73-8.13,.7,2.78,1.86,5.4,2.75,8.13h-5.48Z" fill="#333"/>
</svg>
